<svg width="50" height="50" viewBox="0 0 50 50" fill="none" xmlns="http://www.w3.org/2000/svg">
<g clip-path="url(#clip0_406_1079)">
<path d="M25 50.001C38.8071 50.001 50 38.8081 50 25.001C50 11.1939 38.8071 0.000976562 25 0.000976562C11.1929 0.000976562 0 11.1939 0 25.001C0 38.8081 11.1929 50.001 25 50.001Z" fill="#F0F0F0"/>
<path d="M33.1198 18.4792H29.8489C29.876 18.8387 29.8913 19.2014 29.8913 19.5661C29.8913 21.9845 29.2868 24.3285 28.233 25.9971C27.9079 26.5117 27.3616 27.2385 26.6304 27.7287V18.4791H23.3695V27.7287C22.6384 27.2385 22.092 26.5118 21.7669 25.9971C20.713 24.3285 20.1086 21.9845 20.1086 19.5661C20.1086 19.2014 20.124 18.8386 20.151 18.4792H16.8801C16.8591 18.8369 16.8477 19.1992 16.8477 19.5661C16.8477 26.2708 20.4285 31.5227 24.9998 31.5227C29.5711 31.5227 33.152 26.2708 33.152 19.5661C33.1522 19.1992 33.1407 18.8369 33.1198 18.4792V18.4792Z" fill="#D80027"/>
<path d="M10.3261 11.9575H13.587V14.1314H16.8478V11.9575H20.1086V14.1314H23.3695V11.9575H26.6303V14.1314H29.8912V11.9575H33.152V14.1314H36.4128V11.9575H39.6737V14.1314H47.5191C43.4756 5.76904 34.9115 0.000976562 25 0.000976562C15.0886 0.000976562 6.52446 5.76904 2.48071 14.1314H10.3261V11.9575Z" fill="#6DA544"/>
<path d="M39.674 35.8705V38.0444H36.4131V35.8705H33.1523V38.0444H29.8915V35.8705H26.6306V38.0444H23.3698V35.8705H20.1089V38.0444H16.8481V35.8705H13.587V38.0444H10.3261V35.8705H2.48071C6.52446 44.2329 15.0885 50.001 25 50.001C34.9116 50.001 43.4756 44.2329 47.5194 35.8705H39.674Z" fill="#D80027"/>
</g>
<defs>
<clipPath id="clip0_406_1079">
<rect width="50" height="50" fill="white" transform="translate(0 0.000976562)"/>
</clipPath>
</defs>
</svg>
