<svg width="51" height="51" viewBox="0 0 51 51" fill="none" xmlns="http://www.w3.org/2000/svg">
<g clip-path="url(#clip0_406_1067)">
<path d="M25.9062 50.7188C39.7134 50.7188 50.9062 39.5259 50.9062 25.7188C50.9062 11.9116 39.7134 0.71875 25.9062 0.71875C12.0991 0.71875 0.90625 11.9116 0.90625 25.7188C0.90625 39.5259 12.0991 50.7188 25.9062 50.7188Z" fill="#F0F0F0"/>
<path d="M25.9062 0.71875C15.1571 0.71875 5.99351 7.50312 2.46118 17.0231H49.3513C45.8189 7.50312 36.6553 0.71875 25.9062 0.71875V0.71875Z" fill="#A2001D"/>
<path d="M25.9062 50.7187C36.6553 50.7187 45.8189 43.9344 49.3512 34.4144H2.46118C5.99351 43.9344 15.1571 50.7187 25.9062 50.7187Z" fill="#0052B4"/>
</g>
<defs>
<clipPath id="clip0_406_1067">
<rect width="50" height="50" fill="white" transform="translate(0.90625 0.71875)"/>
</clipPath>
</defs>
</svg>
