<svg width="51" height="51" viewBox="0 0 51 51" fill="none" xmlns="http://www.w3.org/2000/svg">
<g clip-path="url(#clip0_406_1072)">
<path d="M25.9062 50.7188C39.7134 50.7188 50.9062 39.5259 50.9062 25.7188C50.9062 11.9116 39.7134 0.71875 25.9062 0.71875C12.0991 0.71875 0.90625 11.9116 0.90625 25.7188C0.90625 39.5259 12.0991 50.7188 25.9062 50.7188Z" fill="#F0F0F0"/>
<path d="M50.6946 22.4579H29.1673H29.1672V0.930371C28.0997 0.791406 27.0114 0.71875 25.9062 0.71875C24.8011 0.71875 23.7128 0.791406 22.6454 0.930371V22.4577V22.4578H1.11787C0.978906 23.5253 0.90625 24.6134 0.90625 25.7188C0.90625 26.8241 0.978906 27.9122 1.11787 28.9796H22.6452H22.6453V50.5071C23.7128 50.6461 24.8011 50.7188 25.9062 50.7188C27.0114 50.7188 28.0997 50.6462 29.1671 50.5071V28.9798V28.9797H50.6946C50.8336 27.9122 50.9062 26.8241 50.9062 25.7188C50.9062 24.6134 50.8336 23.5253 50.6946 22.4579V22.4579Z" fill="#D80027"/>
</g>
<defs>
<clipPath id="clip0_406_1072">
<rect width="50" height="50" fill="white" transform="translate(0.90625 0.71875)"/>
</clipPath>
</defs>
</svg>
